<?xml version="1.0" encoding="utf-8"?>
<!-- Generator: Adobe Illustrator 19.0.0, SVG Export Plug-In . SVG Version: 6.00 Build 0)  -->
<svg version="1.1" id="Capa_1" xmlns="http://www.w3.org/2000/svg" xmlns:xlink="http://www.w3.org/1999/xlink" x="0px" y="0px"
	 viewBox="116 -166 512 512" style="enable-background:new 116 -166 512 512;" xml:space="preserve">
<style type="text/css">
	.st0{fill:#FFFFFF;}
	.st1{fill:#FFBE00;}
</style>
<path class="st0" d="M628,90c0,141.4-114.6,256-256,256S116,231.4,116,90s114.6-256,256-256S628-51.4,628,90z"/>
<g>
	<path class="st1" d="M445.7,165.8c-8.3,0-15,6.7-15,15v26.7c0,13.8-11.2,25.1-25.1,25.1H271.5c-13.8,0-25.1-11.2-25.1-25.1v-235
		c0-13.8,11.2-25.1,25.1-25.1h134.2c13.8,0,25.1,11.2,25.1,25.1v26.7c0,8.3,6.7,15,15,15c8.3,0,15-6.7,15-15v-26.7
		c0-30.4-24.7-55.1-55.1-55.1H271.5c-30.4,0-55.1,24.7-55.1,55.1v235c0,30.4,24.7,55.1,55.1,55.1h134.2c30.4,0,55.1-24.7,55.1-55.1
		v-26.7C460.7,172.5,454,165.8,445.7,165.8z"/>
	<path class="st1" d="M551.3,65.9L521.4,36c-5.9-5.9-15.4-5.9-21.2,0c-5.9,5.9-5.9,15.4,0,21.2l18.4,18.4H362.3c-8.3,0-15,6.7-15,15
		s6.7,15,15,15h156.3l-18.4,18.4c-5.9,5.9-5.9,15.4,0,21.2c2.9,2.9,6.8,4.4,10.6,4.4s7.7-1.5,10.6-4.4l29.9-29.9
		C564.9,101.8,564.9,79.6,551.3,65.9z"/>
</g>
</svg>
