<?xml version="1.0" encoding="utf-8"?>
<!-- Generator: Adobe Illustrator 19.0.0, SVG Export Plug-In . SVG Version: 6.00 Build 0)  -->
<svg version="1.1" id="Capa_1" xmlns="http://www.w3.org/2000/svg" xmlns:xlink="http://www.w3.org/1999/xlink" x="0px" y="0px"
	 viewBox="116 -166 512 512" style="enable-background:new 116 -166 512 512;" xml:space="preserve">
<style type="text/css">
	.st0{fill:#FFFFFF;}
	.st1{fill:#FFBE00;}
</style>
<path class="st0" d="M628,90c0,141.4-114.6,256-256,256S116,231.4,116,90s114.6-256,256-256S628-51.4,628,90z"/>
<g id="SgP19q_1_">
	<g>
		<path class="st1" d="M195.6,82c0.3-3.6,0.7-7.3,1-10.9c2.6-24.9,10.2-48.3,22.9-69.8c21.4-36.3,51.9-62,91.4-76.8
			c21.5-8.1,43.9-11.6,66.9-10.8c28.1,0.9,54.5,8.2,79.2,21.7c0.5,0.3,0.9,0.5,1.5,0.8c5.4-7.5,10.8-15,16.4-22.7
			c9.8,25.8,19.5,51.4,29.4,77.2c-25.8-3.8-51.2-7.5-77-11.3c6.1-8.5,12.1-16.7,18-25c-47.1-27-121.6-29-177,21.4
			c-57.9,52.6-66.5,138.4-24,200.9c43.8,64.3,126.5,85.2,194.4,52.6c36.7-17.7,62.5-45.9,77.5-83.8c11.5-29,16.2-71.6-1.3-114.2
			c6.7-2.8,13.3-5.5,20.1-8.3c0.2,0.4,0.4,0.7,0.6,1.1c6.6,16.3,10.8,33.2,12.2,50.7c3.5,44-7.4,84.2-33.6,119.7
			c-27.1,36.8-63.4,60-108.3,68.7c-45.8,8.9-88.9,1-128.3-24.2c-42.5-27.2-68.8-66-78.8-115.6c-1.5-7.7-2-15.6-3-23.4
			c-0.1-0.7-0.2-1.4-0.3-2.1C195.6,92.6,195.6,87.3,195.6,82z"/>
		<path class="st1" d="M327.7,67.9c0-6.5-0.1-12.9,0-19.3c0.3-10.4,2.8-20.3,8.5-29.1C343.1,9.1,352.9,3.6,365,2.1
			c8.1-1,16.1-0.5,23.8,2.3c12.2,4.4,19.5,13.5,23.8,25.3c2.4,6.5,3.5,13.3,3.5,20.3c0,5.3,0,10.6,0,15.8c0,0.6,0,1.3,0,2
			c6.9,0.7,12.4,3.7,16.5,9.1c3.7,4.8,5.5,10.2,5.5,16.2c0.1,19.9,0.1,39.8,0,59.8c-0.1,11.1-6.4,20.5-16,23.9
			c-2.3,0.8-4.9,1.3-7.4,1.3c-28.5,0.1-57,0.1-85.5,0c-11.1,0-20.7-8.5-22.8-20c-0.4-2.1-0.5-4.3-0.5-6.4c0-19.2,0-38.4,0-57.6
			c0-9.3,3.4-16.9,11.1-22.4C320.2,69.4,323.8,68.3,327.7,67.9z M381.3,155.8c0-0.9,0-1.5,0-2.2c0-7.7,0-15.5,0-23.2
			c0-1.3,0.3-2.2,1.5-2.9c1.3-0.6,2.4-1.6,3.5-2.5c7-5.8,9.3-13,6.3-20.8c-3-7.9-8.8-12.5-16.9-13.9c-8.4-1.5-15.7,1.1-21.2,7.8
			c-7.2,8.7-6.2,19.1,2.3,26.5c1.3,1.1,2.7,2.2,4.2,3c1,0.6,1.3,1.3,1.3,2.4c-0.1,7.9,0,15.8,0,23.7c0,0.6,0,1.3,0,2
			C368.8,155.8,374.9,155.8,381.3,155.8z M350,67.7c14.8,0,29.4,0,44.1,0c0-5.4,0.1-10.7,0-15.9c0-3.6,0.1-7.2-0.5-10.8
			c-1.1-7-4.5-12.6-11.3-15.3c-2.6-1-5.5-1.7-8.4-1.8c-12.3-0.7-21.9,4.5-23.7,18.6c-0.5,4.3-0.2,8.6-0.3,12.9
			C350,59.5,350,63.5,350,67.7z"/>
	</g>
</g>
</svg>
